# xmcd
#
# Track frame offsets:
#	150
#	14147
#	28217
#	44448
#	62765
#	83154
#	102623
#	115967
#	125301
#	137935
#	154032
#	168935
#	177579
#	190379
#
# Disc length: 2743 seconds
# Revision: 0
# Processed by: cddbd v1.5.2PL0 Copyright (c) Steve Scherf et al.
# Submitted via: dBpowerAMP V12.0
#
DISCID=cc0ab50e
DTITLE=Old Man Luedecke with Tim O'Brien - Domestic Eccentric
DYEAR=2015
DGENRE=Country
TTITLE0=Prologue: Yodelady
TTITLE1=The Girl in the Pearl Earring
TTITLE2=The Briar and the Rose
TTITLE3=Brightest on the Heart
TTITLE4=The Early Days
TTITLE5=Wait a While
TTITLE6=Low on the Hog
TTITLE7=Real Wet Wood
TTITLE8=Old High Way of Love
TTITLE9=Chester Boat Song
TTITLE10=Now We Got a Kitchen
TTITLE11=Hate What I Say
TTITLE12=Year of the Dragon
TTITLE13=Happy Ever After
EXTD=
EXTT0=
EXTT1=
EXTT2=
EXTT3=
EXTT4=
EXTT5=
EXTT6=
EXTT7=
EXTT8=
EXTT9=
EXTT10=
EXTT11=
EXTT12=
EXTT13=
PLAYORDER=
